<svg width="340" height="340" viewBox="0 0 340 340" fill="none" xmlns="http://www.w3.org/2000/svg">
<path fill-rule="evenodd" clip-rule="evenodd" d="M170 13C83.2913 13 13 83.2913 13 170C13 256.709 83.2913 327 170 327C256.709 327 327 256.709 327 170C327 83.2913 256.709 13 170 13ZM0 170C0 76.1116 76.1116 0 170 0C263.888 0 340 76.1116 340 170C340 263.888 263.888 340 170 340C76.1116 340 0 263.888 0 170Z" fill="#C7262E"/>
<path d="M13 170C13 83.2913 83.2913 13 170 13C256.709 13 327 83.2913 327 170C327 256.709 256.709 327 170 327C83.2913 327 13 256.709 13 170Z" fill="#F9E8E8"/>
<path d="M247.51 131.01C250.83 127.691 250.83 122.309 247.51 118.99C244.191 115.67 238.809 115.67 235.49 118.99L247.51 131.01ZM146 220.5L139.99 226.51C143.309 229.83 148.691 229.83 152.01 226.51L146 220.5ZM111.01 173.49C107.691 170.17 102.309 170.17 98.9896 173.49C95.6701 176.809 95.6701 182.191 98.9896 185.51L111.01 173.49ZM235.49 118.99L139.99 214.49L152.01 226.51L247.51 131.01L235.49 118.99ZM152.01 214.49L111.01 173.49L98.9896 185.51L139.99 226.51L152.01 214.49Z" fill="#C7262E"/>
</svg>
