<svg width="36" height="36" viewBox="0 0 36 36" fill="none" xmlns="http://www.w3.org/2000/svg">
<circle cx="18" cy="18" r="18" fill="#F6E9E9"/>
<path fill-rule="evenodd" clip-rule="evenodd" d="M26.4142 9.58579C26.7893 9.96086 27 10.4696 27 11V25C27 25.5304 26.7893 26.0391 26.4142 26.4142C26.0391 26.7893 25.5304 27 25 27H11C10.4696 27 9.96086 26.7893 9.58579 26.4142C9.21071 26.0391 9 25.5304 9 25V11C9 10.4696 9.21071 9.96086 9.58579 9.58579C9.96086 9.21071 10.4696 9 11 9H25C25.5304 9 26.0391 9.21071 26.4142 9.58579ZM14.0098 24H16.0098V20H14.0098V24ZM18.0098 24H20.0098V16H18.0098V24ZM21.875 11H23.125V12.875H25V14.125H23.125V16H21.875V14.125H20V12.875H21.875V11ZM21.9797 18.0036H23.9797V24.0036H21.9797V18.0036ZM15.878 16.8115C15.6339 17.0439 15.2393 17.0439 14.9951 16.8115L13.5634 15.4489L10.8829 18L10 17.1597L13.122 14.1885C13.3661 13.9561 13.7607 13.9561 14.0049 14.1885L15.4366 15.5511L18.1171 13L19 13.8403L15.878 16.8115Z" fill="url(#paint0_linear_4270_4353)"/>
<defs>
<linearGradient id="paint0_linear_4270_4353" x1="9" y1="26.9751" x2="28.0551" y2="14.3189" gradientUnits="userSpaceOnUse">
<stop stop-color="#BC322D"/>
<stop offset="1" stop-color="#DA4E4D"/>
</linearGradient>
</defs>
</svg>
