<svg width="408" height="364" viewBox="0 0 408 364" fill="none" xmlns="http://www.w3.org/2000/svg">
<path fill-rule="evenodd" clip-rule="evenodd" d="M244.402 106.141C244.32 106.043 244.279 105.917 244.286 105.79C244.294 105.662 244.349 105.542 244.441 105.454C244.533 105.365 244.655 105.315 244.783 105.313C244.911 105.311 245.035 105.357 245.13 105.442C245.264 105.584 292.449 154.163 238.407 208.249C238.31 208.346 238.179 208.4 238.043 208.4C237.906 208.4 237.775 208.346 237.679 208.249C237.582 208.153 237.528 208.022 237.528 207.885C237.528 207.749 237.582 207.618 237.679 207.521C291.044 154.16 244.533 106.283 244.402 106.141Z" fill="#350A3D"/>
<path fill-rule="evenodd" clip-rule="evenodd" d="M240.063 32.1189C214.896 53.1287 227.155 91.5667 247.579 111.834C271.21 135.279 279.8 172.792 237.915 201.45C196.03 230.107 261.007 254.069 286.246 222.289C311.486 190.508 320.768 113.337 319.006 94.1184C317.244 74.8994 317.914 66.5056 303.431 58.1701C288.947 49.8346 240.063 32.1189 240.063 32.1189Z" fill="#040404"/>
<path fill-rule="evenodd" clip-rule="evenodd" d="M177.226 167.598C177.226 167.598 173.586 162.761 172.858 162.026C170.107 161.251 167.257 160.883 164.399 160.934C163.933 160.906 163.466 160.977 163.029 161.142C162.593 161.308 162.197 161.565 161.867 161.895C161.537 162.225 161.281 162.622 161.115 163.059C160.95 163.495 160.879 163.962 160.908 164.428C160.843 165.52 160.708 166.845 160.708 166.845C160.708 166.845 144.088 168.221 142.872 168.49C141.656 168.76 140.055 173.393 139.716 174.332C139.378 175.272 140.018 177.423 141.26 177.521C141.888 177.551 142.515 177.435 143.092 177.182C143.668 176.93 144.179 176.547 144.583 176.065C145.085 175.257 145.522 176.367 145.522 176.367C144.842 177.501 144.386 178.756 144.179 180.062C144.113 181.605 144.448 182.413 145.689 182.952C146.723 183.348 147.791 183.651 148.878 183.858C148.891 185.039 149.06 186.213 149.38 187.349C149.817 188.288 149.952 188.696 151.863 189.264C153.774 189.831 160.522 191.415 160.522 191.415L177.226 167.598Z" fill="#CB6459"/>
<path fill-rule="evenodd" clip-rule="evenodd" d="M148.827 184.288C148.775 184.28 148.724 184.261 148.679 184.234C148.633 184.206 148.594 184.17 148.562 184.127C148.531 184.084 148.508 184.035 148.495 183.983C148.483 183.932 148.481 183.878 148.489 183.825C148.497 183.773 148.515 183.722 148.543 183.677C148.57 183.631 148.607 183.592 148.65 183.56C148.693 183.529 148.741 183.506 148.793 183.494C148.845 183.481 148.898 183.479 148.951 183.487L152.194 184.004C152.248 184.01 152.301 184.027 152.348 184.054C152.396 184.081 152.437 184.117 152.47 184.161C152.503 184.204 152.527 184.254 152.54 184.307C152.553 184.36 152.556 184.415 152.547 184.469C152.539 184.523 152.519 184.574 152.49 184.621C152.461 184.667 152.423 184.707 152.378 184.738C152.333 184.769 152.282 184.79 152.229 184.801C152.175 184.812 152.12 184.812 152.067 184.801L148.827 184.288Z" fill="#B24949"/>
<path fill-rule="evenodd" clip-rule="evenodd" d="M324 330.588C324 330.588 319.701 363.996 291.779 363.996H260.359C248.813 363.996 222.23 334.348 201.821 308.556C190.599 294.718 180.533 279.981 171.726 264.494C166.79 272.899 114.036 315.035 101.686 326.009C99.2687 328.161 88.7747 340.387 86.8965 340.387C78.3045 340.761 69.7964 338.562 62.4614 334.072C62.4614 334.072 65.7956 319.894 66.4872 319.028C97.8964 279.789 132.884 235.633 150.232 218.074C167.58 200.514 185.372 210.204 225.648 238.687C265.924 267.169 324 330.588 324 330.588Z" fill="#242124"/>
<path fill-rule="evenodd" clip-rule="evenodd" d="M136.469 158.375L137.445 157.323C137.813 156.93 138.322 156.698 138.861 156.678C139.399 156.658 139.924 156.852 140.32 157.218L170.485 185.267C170.879 185.636 171.111 186.146 171.13 186.686C171.149 187.225 170.953 187.751 170.586 188.146L169.611 189.198C169.243 189.592 168.734 189.824 168.196 189.844C167.657 189.864 167.132 189.672 166.735 189.308L136.575 161.258C136.179 160.889 135.945 160.379 135.926 159.838C135.906 159.298 136.101 158.772 136.469 158.375Z" fill="#350A3D"/>
<path fill-rule="evenodd" clip-rule="evenodd" d="M200.846 183.614C200.846 183.614 197.169 181.929 195.892 181.121C194.614 180.313 184.815 167.89 183.541 167.351C179.776 166.595 175.963 166.101 172.13 165.873C171.344 165.963 170.592 166.242 169.937 166.685C169.282 167.129 168.744 167.725 168.37 168.421C167.746 170.117 167.208 171.843 166.761 173.594L150.298 174.009L146.534 170.511C145.797 170.76 145.135 171.19 144.608 171.763C144.121 173.129 143.949 174.587 144.106 176.029C144.731 177.772 145.7 179.371 146.956 180.732C147.905 181.406 149.017 181.812 150.177 181.907C150.169 182.676 150.374 183.432 150.771 184.09C151.168 184.748 151.74 185.283 152.423 185.635C154.702 186.574 157.49 187.819 157.49 187.819C157.536 188.485 157.722 189.135 158.035 189.725C158.349 190.315 158.783 190.833 159.31 191.244C160.988 192.336 165.498 195.746 165.498 195.746C166.81 195.738 168.093 196.132 169.174 196.876C170.254 197.62 171.08 198.678 171.54 199.907C173.622 200.781 181.139 204.075 182.213 204.34C185.433 204.184 188.642 204.826 191.553 206.211C193.031 207.152 194.574 207.986 196.172 208.705L203.816 187.611L200.846 183.614Z" fill="#E6AD83"/>
<path fill-rule="evenodd" clip-rule="evenodd" d="M66.6983 360.986C66.6983 360.986 4.55321 362.472 2.14355 358.023V352.09C2.14355 349.721 4.98281 346.314 12.6995 344.082C20.4162 341.851 36.9052 337.556 41.9684 336.002C47.0316 334.447 61.5404 318.588 63.6007 316.663C65.6609 314.737 75.274 320.961 77.3343 321.999C79.3945 323.036 78.0222 325.555 76.9885 328.518C75.9547 331.481 66.6983 360.986 66.6983 360.986Z" fill="#DE4345"/>
<path fill-rule="evenodd" clip-rule="evenodd" d="M2.14023 363.997H101.548C102.723 363.997 103.688 363.447 103.688 362.777V359.246C103.688 358.573 102.723 358.023 101.548 358.023H2.14023C0.964525 358.023 0 358.573 0 359.246V362.777C0 363.447 0.964525 363.997 2.14023 363.997Z" fill="#ECD8DA"/>
<path fill-rule="evenodd" clip-rule="evenodd" d="M2.1439 364H35.9264C37.1057 364 38.0667 363.451 38.0667 362.777V359.246C38.0667 358.573 37.1021 358.023 35.9264 358.023H2.1439C0.964557 358.023 0.00367238 358.573 0.00367238 359.246V362.777C3.24179e-05 363.447 0.964557 364 2.1439 364Z" fill="#4B4B4B"/>
<path fill-rule="evenodd" clip-rule="evenodd" d="M46.0961 337.938C46.4383 338.976 49.5286 344.163 47.3847 345.422C45.2407 346.682 38.3722 351.202 34.5065 351.202H12.2773C2.06357 351.202 4.4222 348.127 4.4222 348.127C3.785 348.59 3.25278 349.182 2.86015 349.866C2.46751 350.549 2.22327 351.307 2.14355 352.091V358.024H101.547C104.657 353.99 106.157 348.945 105.755 343.868C105.755 333.938 106.312 328.216 104.638 326.636C102.963 325.057 101.806 325.857 101.806 325.857C94.0817 331.638 84.7234 327.484 79.8276 325.191C79.3071 324.944 78.8158 324.7 78.3426 324.463C74.375 322.414 71.9399 320.587 68.4128 322.308C64.4634 324.234 50.5587 332.759 48.3274 334.091C46.0961 335.423 45.754 336.901 46.0961 337.938Z" fill="#FF5356"/>
<path fill-rule="evenodd" clip-rule="evenodd" d="M2.14355 353.561V358.027H101.551C104.659 353.993 106.157 348.948 105.755 343.871C105.755 333.941 106.312 328.219 104.638 326.639C104.76 327.424 104.723 328.225 104.527 328.995C104.331 329.765 103.981 330.487 103.498 331.117C103.016 331.748 102.41 332.274 101.718 332.663C101.026 333.053 100.262 333.298 99.4725 333.384H79.6639C72.384 333.384 70.9279 336.744 70.9279 336.744C70.9279 336.744 67.2589 343.016 64.6163 347.453C63.5992 349.408 62.1414 351.101 60.3581 352.396C58.5748 353.692 56.5149 354.555 54.3407 354.918H6.54065C4.956 355.038 3.38478 354.553 2.14355 353.561Z" fill="url(#paint0_linear_2803_57935)"/>
<path fill-rule="evenodd" clip-rule="evenodd" d="M67.3358 324.637C67.5062 324.767 67.7199 324.826 67.9327 324.802C68.1455 324.779 68.341 324.674 68.4787 324.51C68.5294 324.419 68.5612 324.318 68.5723 324.214C68.5835 324.11 68.5736 324.005 68.5434 323.905C68.5132 323.805 68.4632 323.712 68.3965 323.631C68.3298 323.551 68.2476 323.484 68.1548 323.436L61.9086 319.407L61.6173 318.679L60.2669 320.073L60.5545 320.259L63.1025 326.617C63.1921 326.824 63.3483 326.995 63.5462 327.102C63.7441 327.21 63.9723 327.248 64.1945 327.211C64.2923 327.195 64.3852 327.157 64.4659 327.099C64.5467 327.042 64.6131 326.967 64.6599 326.879C64.7067 326.792 64.7327 326.695 64.736 326.596C64.7392 326.497 64.7196 326.398 64.6786 326.308L62.8586 321.744L67.343 324.634L67.3358 324.637ZM49.2888 330.825C49.7001 330.461 50.1151 330.097 50.5337 329.701L52.3173 334.138C52.3591 334.228 52.3794 334.326 52.3765 334.426C52.3736 334.525 52.3476 334.622 52.3006 334.71C52.2537 334.797 52.187 334.873 52.1059 334.93C52.0247 334.988 51.9314 335.025 51.8332 335.04C51.611 335.078 51.3825 335.04 51.1844 334.933C50.9864 334.825 50.8303 334.654 50.7412 334.447L49.2852 330.807L49.2888 330.825ZM50.5956 329.642L54.9635 332.46C55.1342 332.588 55.3478 332.647 55.5603 332.623C55.7729 332.6 55.9683 332.495 56.1065 332.332C56.1572 332.241 56.189 332.14 56.2001 332.036C56.2112 331.932 56.2014 331.827 56.1712 331.727C56.141 331.627 56.091 331.534 56.0242 331.453C55.9575 331.373 55.8753 331.307 55.7825 331.258L51.6875 328.62L50.5956 329.639V329.642ZM54.9089 325.518C55.4695 324.961 56.0264 324.426 56.5651 323.869L61.9705 327.356C62.0629 327.405 62.1447 327.471 62.2112 327.552C62.2777 327.632 62.3274 327.725 62.3576 327.825C62.3878 327.925 62.3977 328.03 62.3868 328.134C62.376 328.238 62.3446 328.339 62.2944 328.43C62.1561 328.594 61.9599 328.699 61.7465 328.723C61.5331 328.747 61.3188 328.687 61.1478 328.558L56.6634 325.667L58.4834 330.232C58.5252 330.322 58.5455 330.421 58.5426 330.52C58.5397 330.619 58.5137 330.717 58.4667 330.804C58.4197 330.892 58.3531 330.967 58.272 331.025C58.1908 331.082 58.0975 331.12 57.9993 331.135C57.7776 331.172 57.5496 331.135 57.3518 331.028C57.1539 330.921 56.9975 330.751 56.9073 330.545L54.9089 325.518Z" fill="white"/>
<path fill-rule="evenodd" clip-rule="evenodd" d="M210.008 186.988L203.558 183.305C202.801 183.119 202.006 183.166 201.276 183.439C201.276 183.439 199.663 199.965 191.943 206.211C191.885 206.49 191.888 206.779 191.951 207.057C192.013 207.335 192.135 207.596 192.307 207.824C192.878 208.359 199.794 213.185 199.794 213.185C201.737 213.435 203.706 213 205.363 211.955C209.201 207.638 212.124 202.589 213.957 197.111C212.836 193.664 211.517 190.284 210.008 186.988Z" fill="#D4A037"/>
<path fill-rule="evenodd" clip-rule="evenodd" d="M341.683 330.588C341.683 330.588 337.384 363.996 309.462 363.996H278.046C266.5 363.996 239.914 334.348 219.504 308.556C208.283 294.717 198.217 279.981 189.409 264.494C184.473 272.899 131.719 315.035 119.369 326.009C116.952 328.161 106.458 340.387 104.58 340.387C95.9877 340.761 87.4797 338.562 80.1448 334.072C80.1448 334.072 83.4789 319.894 84.1705 319.028C115.58 279.789 150.571 235.633 167.915 218.074C185.26 200.514 203.055 210.204 243.331 238.687C283.608 267.169 341.683 330.588 341.683 330.588Z" fill="#2E2E2E"/>
<path fill-rule="evenodd" clip-rule="evenodd" d="M280.735 161.854L277.976 159.514C277.976 159.514 262.746 192.488 259.525 211.296C256.304 230.104 270.536 227.956 270.536 227.956C270.536 227.956 280.728 222.045 281.008 214.521C281.288 206.997 280.735 161.854 280.735 161.854Z" fill="#FFCD67"/>
<path fill-rule="evenodd" clip-rule="evenodd" d="M296.322 49.6602C296.322 49.6602 311.228 73.2471 333.686 82.8056C333.686 82.8056 336.256 99.1491 325.103 106.101C313.95 113.054 296.784 107.419 296.784 107.419L285.46 90.759L296.322 49.6602Z" fill="#E6AD83"/>
<path fill-rule="evenodd" clip-rule="evenodd" d="M288.135 94.6975L286.348 92.0659C287.877 85.7979 290.523 74.8634 290.523 74.099C292.65 70.1884 295.027 66.4193 297.639 62.8152L303.412 62.9498L303.278 85.6523L288.135 94.6975Z" fill="#CB6459"/>
<path fill-rule="evenodd" clip-rule="evenodd" d="M351.497 123.446C351.497 123.446 394.448 199.885 355.792 314.751C353.484 320.754 352.301 327.129 352.301 333.559C352.84 342.16 323.298 346.725 310.143 323.884C296.988 301.043 305.848 301.851 291.346 287.612C276.845 273.372 254.022 255.908 254.022 255.908C256.023 252.518 258.699 249.576 261.885 247.265C265.071 244.953 268.699 243.322 272.542 242.473C272.542 242.473 272.542 235.218 276.706 233.737C276.706 233.737 269.86 209.018 270.395 192.092C270.93 175.166 280.587 146.145 296.966 124.651C298.088 120.984 297.898 117.04 296.428 113.498C293.88 108.661 293.476 106.782 294.684 104.362C297.859 104.243 300.934 103.218 303.544 101.406C307.57 98.4505 317.641 98.1812 317.641 98.1812L351.497 123.446Z" fill="url(#paint1_linear_2803_57935)"/>
<path fill-rule="evenodd" clip-rule="evenodd" d="M337.665 340.57C332.028 340.401 326.532 338.774 321.71 335.85C316.889 332.925 312.908 328.801 310.154 323.88C296.996 301.043 305.859 301.848 291.357 287.608C276.855 273.369 254.033 255.904 254.033 255.904C256.033 252.514 258.71 249.572 261.896 247.261C265.082 244.949 268.71 243.318 272.553 242.469C272.553 242.469 272.553 235.215 276.717 233.733L276.615 233.369L309.062 244.788L343.43 194.272L349.09 209.775C349.09 209.775 325.711 281.326 320.877 296.373C316.487 310.041 315.647 329.479 337.665 340.57Z" fill="#FFC44E"/>
<path fill-rule="evenodd" clip-rule="evenodd" d="M300.028 164.017C295.369 182.717 293.47 201.998 294.389 221.248C294.389 221.248 291.638 219.701 291.437 223.796C279.149 210.07 251.707 212.512 226.118 186.72C221.128 181.685 210.008 186.989 210.008 186.989C210.593 191.858 209.969 196.797 208.192 201.368C206.414 205.939 203.537 210.002 199.816 213.197C199.816 213.197 195.517 228.779 220.491 242.753C245.465 256.727 271.782 260.753 286.279 270.963C300.777 281.173 312.596 279.295 321.187 270.155C329.777 261.015 359.042 196.806 355.559 172.604C349.746 132.481 307.624 136.379 300.028 164.017Z" fill="url(#paint2_linear_2803_57935)"/>
<path opacity="0.5" fill-rule="evenodd" clip-rule="evenodd" d="M295.765 186.01C295.401 188.78 295.143 191.47 294.925 194.072C313.681 196.446 331.996 201.513 349.306 209.116C350.154 206.47 350.94 203.853 351.653 201.287C333.836 193.587 315.021 188.44 295.765 185.999V186.01ZM294.437 201.399C312.527 203.905 330.204 208.801 347.005 215.959C346.113 218.507 345.185 221.055 344.217 223.581C328.233 216.709 311.408 211.987 294.182 209.538C294.211 207.107 294.287 204.373 294.437 201.399Z" fill="white"/>
<path fill-rule="evenodd" clip-rule="evenodd" d="M243.306 32.3267C243.306 32.3267 235.393 39.2645 240.86 53.9408C246.327 68.6172 250.287 74.5066 245.039 81.2187C244.854 81.5322 244.781 81.8986 244.83 82.259C244.879 82.6193 245.047 82.9529 245.308 83.2061C246.247 83.9887 249.676 85.3246 251.616 86.3619C253.556 87.3993 260.592 97.9443 264.88 101.224C269.168 104.504 278.599 101.908 286.498 92.7173C294.396 83.5264 300.625 60.9405 297.884 51.9498C295.143 42.9591 259.078 28.8069 243.306 32.3267Z" fill="#E6AD83"/>
<path fill-rule="evenodd" clip-rule="evenodd" d="M276.404 53.475C271.715 55.0393 266.745 55.58 261.829 55.0607C256.913 54.5414 252.165 52.9743 247.907 50.4648C234.522 41.8272 229.517 29.1055 241.154 17.7961C252.791 6.48679 280.302 -8.19317 303.762 8.49241C327.221 25.178 315.956 50.432 350.805 65.2758C369.197 73.1053 383.564 78.4451 392.901 88.4514C443.132 142.323 345.716 221.372 311.635 149.464C289.227 102.163 314.82 63.3393 276.404 53.475Z" fill="#040404"/>
<path fill-rule="evenodd" clip-rule="evenodd" d="M84.3782 360.986C84.3782 360.986 22.2331 362.472 19.8235 358.023V352.09C19.8235 349.721 22.6627 346.314 30.3795 344.082C38.0962 341.851 54.5851 337.556 59.6483 336.002C64.7115 334.447 79.2204 318.588 81.2806 316.663C83.3408 314.737 92.954 320.961 95.0142 321.999C97.0744 323.036 95.7022 325.555 94.6721 328.518C93.6419 331.481 84.3782 360.986 84.3782 360.986Z" fill="#DE4345"/>
<path fill-rule="evenodd" clip-rule="evenodd" d="M19.8264 363.997H119.237C120.417 363.997 121.378 363.447 121.378 362.777V359.246C121.378 358.573 120.417 358.023 119.237 358.023H19.8264C18.6507 358.023 17.686 358.573 17.686 359.246V362.777C17.686 363.447 18.647 363.997 19.8264 363.997Z" fill="#333333"/>
<path fill-rule="evenodd" clip-rule="evenodd" d="M19.823 364H53.6054C54.7848 364 55.7457 363.451 55.7457 362.777V359.246C55.7457 358.573 54.7848 358.023 53.6054 358.023H19.823C18.6436 358.023 17.6826 358.573 17.6826 359.246V362.777C17.6826 363.447 18.6436 364 19.823 364Z" fill="#4B4B4B"/>
<path fill-rule="evenodd" clip-rule="evenodd" d="M63.7797 337.938C64.1219 338.976 67.2122 344.163 65.0646 345.422C62.917 346.682 56.0521 351.202 52.1865 351.202H29.9571C19.7434 351.202 22.1021 348.127 22.1021 348.127C21.4648 348.59 20.9324 349.182 20.5397 349.865C20.1471 350.548 19.903 351.307 19.8235 352.091V358.024H119.231C122.34 353.99 123.84 348.945 123.439 343.868C123.439 333.938 123.995 328.216 122.321 326.636C120.647 325.057 119.486 325.857 119.486 325.857C111.758 331.638 102.403 327.484 97.5112 325.191C96.9919 324.949 96.4957 324.706 96.0225 324.463C92.0549 322.414 89.6235 320.587 86.0927 322.308C82.1433 324.234 68.2387 332.759 66.0074 334.091C63.7761 335.423 63.4339 336.901 63.7797 337.938Z" fill="#FF5356"/>
<path fill-rule="evenodd" clip-rule="evenodd" d="M19.8235 353.561V358.027H119.231C122.34 353.993 123.84 348.948 123.439 343.871C123.439 333.941 123.995 328.219 122.321 326.639C122.443 327.424 122.405 328.225 122.209 328.995C122.013 329.764 121.663 330.486 121.181 331.116C120.698 331.747 120.092 332.273 119.401 332.662C118.709 333.052 117.945 333.298 117.156 333.384H97.3474C90.0675 333.384 88.6115 336.744 88.6115 336.744C88.6115 336.744 84.9424 343.016 82.2998 347.453C81.2829 349.409 79.8253 351.101 78.042 352.397C76.2586 353.692 74.1984 354.556 72.0242 354.918H24.2206C22.6359 355.038 21.0647 354.553 19.8235 353.561Z" fill="url(#paint3_linear_2803_57935)"/>
<path fill-rule="evenodd" clip-rule="evenodd" d="M85.0186 324.637C85.1891 324.767 85.4028 324.826 85.6156 324.802C85.8284 324.779 86.0239 324.674 86.1616 324.51C86.2117 324.418 86.2431 324.318 86.254 324.214C86.2648 324.11 86.2549 324.005 86.2248 323.905C86.1946 323.805 86.1448 323.712 86.0784 323.632C86.0119 323.551 85.9301 323.485 85.8377 323.436L79.5915 319.407L79.3002 318.679L77.9498 320.073L78.2374 320.259L80.7854 326.617C80.875 326.824 81.0311 326.995 81.229 327.102C81.427 327.21 81.6552 327.248 81.8773 327.211C81.9755 327.196 82.0689 327.158 82.15 327.101C82.2312 327.043 82.2978 326.968 82.3448 326.88C82.3917 326.793 82.4177 326.695 82.4206 326.596C82.4235 326.497 82.4032 326.398 82.3614 326.308L80.5414 321.744L85.0259 324.634L85.0186 324.637ZM66.9717 330.825C67.383 330.461 67.798 330.097 68.2166 329.701L70.0001 334.138C70.0412 334.228 70.0607 334.327 70.0572 334.426C70.0538 334.525 70.0275 334.623 69.9803 334.71C69.933 334.797 69.8661 334.873 69.785 334.93C69.7038 334.987 69.6105 335.025 69.5124 335.04C69.2902 335.078 69.0617 335.04 68.8636 334.933C68.6656 334.825 68.5095 334.654 68.4204 334.447L66.9644 330.807L66.9717 330.825ZM68.2785 329.642L72.6463 332.46C72.8177 332.589 73.0318 332.647 73.245 332.624C73.4581 332.6 73.6541 332.496 73.7929 332.332C73.8431 332.241 73.8745 332.14 73.8854 332.036C73.8962 331.932 73.8863 331.827 73.8562 331.727C73.826 331.627 73.7762 331.535 73.7097 331.454C73.6433 331.373 73.5615 331.307 73.469 331.258L69.3704 328.62C69.0064 328.965 68.6425 329.304 68.2785 329.639V329.642ZM72.5918 325.518C73.156 324.961 73.7092 324.426 74.2479 323.869L79.6533 327.356C79.7461 327.405 79.8283 327.471 79.8951 327.551C79.9618 327.632 80.0117 327.725 80.0419 327.825C80.0721 327.925 80.082 328.03 80.0709 328.134C80.0598 328.238 80.0279 328.339 79.9773 328.43C79.8384 328.594 79.6424 328.698 79.4293 328.721C79.2161 328.745 79.002 328.687 78.8307 328.558L74.3462 325.667L76.1662 330.232C76.2072 330.322 76.2269 330.421 76.2237 330.52C76.2204 330.619 76.1943 330.716 76.1475 330.803C76.1006 330.89 76.0343 330.966 75.9536 331.023C75.8729 331.081 75.78 331.119 75.6821 331.135C75.4604 331.172 75.2325 331.135 75.0346 331.028C74.8368 330.921 74.6803 330.751 74.5901 330.545L72.5918 325.518Z" fill="white"/>
<path fill-rule="evenodd" clip-rule="evenodd" d="M160.307 166.805C160.321 166.699 160.377 166.602 160.463 166.536C160.548 166.471 160.656 166.442 160.762 166.456C160.869 166.47 160.966 166.526 161.031 166.611C161.097 166.696 161.126 166.804 161.112 166.911C161.112 166.911 160.824 168.956 160.773 169.608C160.737 169.968 160.831 170.328 161.039 170.624C161.28 170.904 161.613 171.089 161.978 171.144C162.174 171.171 162.372 171.171 162.568 171.144C163.606 171.023 164.593 170.631 165.433 170.008C166.608 169.14 167.411 167.859 167.682 166.423C167.845 165.573 167.885 164.704 167.799 163.842C167.799 163.742 167.836 163.645 167.904 163.57C167.971 163.496 168.064 163.45 168.164 163.44C168.264 163.431 168.364 163.459 168.445 163.519C168.525 163.579 168.58 163.667 168.599 163.766C168.697 164.707 168.654 165.658 168.472 166.587C168.169 168.218 167.258 169.674 165.924 170.66C164.964 171.371 163.834 171.816 162.648 171.952C162.373 171.983 162.095 171.976 161.822 171.93C161.266 171.838 160.763 171.547 160.406 171.111C160.07 170.657 159.915 170.094 159.973 169.532C160.024 168.924 160.307 166.813 160.307 166.805Z" fill="#B24949"/>
<path fill-rule="evenodd" clip-rule="evenodd" d="M167.936 167.784C167.885 167.797 167.831 167.799 167.778 167.792C167.726 167.784 167.675 167.766 167.63 167.738C167.584 167.711 167.544 167.675 167.512 167.632C167.481 167.589 167.458 167.541 167.445 167.489C167.432 167.437 167.429 167.384 167.437 167.331C167.445 167.279 167.463 167.228 167.491 167.182C167.518 167.137 167.554 167.097 167.597 167.065C167.64 167.034 167.688 167.011 167.74 166.998C168.216 166.837 168.64 166.553 168.97 166.174C169.3 165.796 169.524 165.336 169.618 164.843C169.644 164.739 169.711 164.649 169.803 164.594C169.895 164.538 170.005 164.522 170.109 164.548C170.214 164.574 170.303 164.641 170.359 164.733C170.414 164.825 170.43 164.935 170.404 165.039C170.272 165.674 169.974 166.262 169.541 166.745C169.107 167.227 168.554 167.585 167.936 167.784Z" fill="#B24949"/>
<path fill-rule="evenodd" clip-rule="evenodd" d="M166.761 174.001C166.654 174.001 166.551 173.959 166.475 173.883C166.399 173.807 166.357 173.704 166.357 173.597C166.357 173.49 166.399 173.387 166.475 173.311C166.551 173.236 166.654 173.193 166.761 173.193L175.744 173.12C175.851 173.12 175.954 173.163 176.03 173.239C176.106 173.314 176.148 173.417 176.148 173.524C176.148 173.632 176.106 173.734 176.03 173.81C175.954 173.886 175.851 173.928 175.744 173.928L166.761 174.001Z" fill="#CB6459"/>
<path fill-rule="evenodd" clip-rule="evenodd" d="M172.323 173.175C172.424 173.213 172.505 173.29 172.549 173.388C172.593 173.485 172.596 173.597 172.558 173.697C172.52 173.798 172.443 173.879 172.346 173.923C172.248 173.967 172.136 173.97 172.036 173.932C171.406 173.672 170.841 173.276 170.381 172.772C169.921 172.269 169.578 171.671 169.375 171.02C169.36 170.969 169.356 170.915 169.362 170.863C169.368 170.81 169.385 170.759 169.41 170.712C169.436 170.666 169.471 170.625 169.513 170.592C169.554 170.559 169.602 170.534 169.653 170.52C169.704 170.505 169.758 170.501 169.811 170.507C169.864 170.513 169.915 170.529 169.961 170.555C170.008 170.581 170.049 170.616 170.082 170.658C170.115 170.699 170.139 170.747 170.154 170.798C170.318 171.33 170.598 171.818 170.973 172.229C171.348 172.64 171.809 172.963 172.323 173.175Z" fill="#CB6459"/>
<path fill-rule="evenodd" clip-rule="evenodd" d="M150.148 182.311C150.041 182.304 149.942 182.254 149.871 182.172C149.801 182.091 149.766 181.985 149.774 181.878C149.781 181.771 149.831 181.671 149.912 181.601C149.994 181.531 150.1 181.496 150.207 181.503L159.889 182.253C159.995 182.263 160.093 182.315 160.161 182.397C160.229 182.478 160.262 182.584 160.253 182.69C160.244 182.796 160.193 182.893 160.112 182.961C160.031 183.03 159.926 183.063 159.82 183.054L150.148 182.311Z" fill="#CB6459"/>
<path fill-rule="evenodd" clip-rule="evenodd" d="M157.337 188.194C157.287 188.174 157.241 188.145 157.202 188.108C157.163 188.07 157.132 188.026 157.111 187.976C157.09 187.926 157.078 187.873 157.078 187.819C157.078 187.765 157.088 187.712 157.109 187.662C157.13 187.612 157.16 187.567 157.198 187.529C157.237 187.491 157.282 187.461 157.333 187.441C157.383 187.421 157.436 187.412 157.49 187.413C157.544 187.414 157.597 187.426 157.647 187.448L163.107 189.708C163.161 189.724 163.212 189.752 163.255 189.789C163.298 189.826 163.334 189.872 163.358 189.923C163.383 189.975 163.396 190.031 163.398 190.088C163.399 190.145 163.389 190.202 163.367 190.254C163.345 190.307 163.313 190.354 163.271 190.394C163.23 190.433 163.181 190.463 163.127 190.483C163.074 190.502 163.016 190.509 162.96 190.505C162.903 190.501 162.847 190.485 162.797 190.458L157.337 188.194Z" fill="#CB6459"/>
<path fill-rule="evenodd" clip-rule="evenodd" d="M168.181 196.722C168.073 196.727 167.969 196.688 167.89 196.616C167.811 196.543 167.764 196.442 167.76 196.335C167.756 196.228 167.794 196.123 167.867 196.044C167.94 195.965 168.041 195.919 168.148 195.914L170.299 195.823C170.352 195.821 170.405 195.83 170.455 195.848C170.505 195.866 170.55 195.894 170.589 195.93C170.629 195.966 170.66 196.009 170.682 196.058C170.705 196.106 170.717 196.158 170.719 196.211C170.722 196.264 170.713 196.317 170.695 196.367C170.677 196.417 170.649 196.462 170.613 196.501C170.577 196.541 170.533 196.572 170.485 196.594C170.437 196.617 170.385 196.629 170.332 196.631L168.181 196.722Z" fill="#CB6459"/>
<path fill-rule="evenodd" clip-rule="evenodd" d="M140.761 161.614L140.99 161.367C141.077 161.274 141.197 161.219 141.323 161.214C141.45 161.209 141.574 161.255 141.667 161.341L148.743 167.926C148.836 168.012 148.891 168.131 148.895 168.257C148.9 168.383 148.855 168.506 148.769 168.599L148.539 168.847C148.453 168.939 148.334 168.994 148.208 168.999C148.082 169.004 147.959 168.958 147.866 168.872L140.786 162.291C140.693 162.205 140.639 162.085 140.634 161.958C140.629 161.831 140.675 161.707 140.761 161.614Z" fill="#472055"/>
<path fill-rule="evenodd" clip-rule="evenodd" d="M303.995 310.453C304.059 310.473 304.117 310.507 304.168 310.55C304.219 310.594 304.26 310.648 304.29 310.708C304.32 310.768 304.338 310.833 304.343 310.9C304.347 310.967 304.338 311.034 304.316 311.097C304.295 311.161 304.261 311.219 304.216 311.269C304.172 311.32 304.118 311.36 304.057 311.389C303.997 311.418 303.931 311.435 303.864 311.439C303.797 311.442 303.73 311.432 303.667 311.41C302.19 310.89 300.76 310.244 299.394 309.477C297.892 308.631 296.452 307.68 295.084 306.631C277.183 292.999 205.097 235.455 204.085 234.636C201.322 233.104 198.197 232.346 195.039 232.441C191.881 232.536 188.807 233.48 186.14 235.175C177.324 241.322 106.425 320.04 106.207 320.266C106.163 320.32 106.11 320.364 106.049 320.396C105.988 320.428 105.921 320.448 105.853 320.453C105.784 320.459 105.715 320.45 105.65 320.428C105.584 320.406 105.524 320.371 105.473 320.324C105.422 320.278 105.381 320.222 105.352 320.159C105.324 320.097 105.308 320.029 105.307 319.96C105.305 319.891 105.318 319.823 105.343 319.759C105.369 319.695 105.408 319.637 105.457 319.589C105.661 319.363 176.658 240.547 185.558 234.337C188.385 232.537 191.645 231.533 194.995 231.431C198.345 231.329 201.66 232.133 204.591 233.759C204.627 233.775 204.661 233.794 204.693 233.817C204.904 233.988 277.736 292.125 295.71 305.823C297.039 306.842 298.439 307.766 299.9 308.585C301.208 309.325 302.578 309.95 303.995 310.453Z" fill="#242124"/>
<path fill-rule="evenodd" clip-rule="evenodd" d="M91.5559 309.885C91.4509 309.808 91.3795 309.693 91.3563 309.565C91.3331 309.437 91.3598 309.305 91.4312 309.196C91.5025 309.086 91.6129 309.009 91.7396 308.979C91.8664 308.949 91.9999 308.968 92.1128 309.033C92.1601 309.07 109.475 320.401 114.138 328.216C114.207 328.331 114.228 328.469 114.195 328.6C114.162 328.73 114.079 328.842 113.964 328.911C113.848 328.98 113.71 329 113.58 328.968C113.449 328.935 113.337 328.852 113.268 328.736C108.726 321.125 91.6032 309.914 91.5559 309.885Z" fill="#242124"/>
<path fill-rule="evenodd" clip-rule="evenodd" d="M189.642 265.597C189.589 265.72 189.489 265.818 189.365 265.868C189.24 265.918 189.101 265.917 188.977 265.865C188.854 265.812 188.756 265.712 188.706 265.588C188.656 265.463 188.657 265.324 188.71 265.2C190.283 261.436 191.147 257.413 191.258 253.334C191.258 253.199 191.311 253.07 191.406 252.975C191.502 252.88 191.631 252.826 191.765 252.826C191.9 252.826 192.029 252.88 192.124 252.975C192.22 253.07 192.273 253.199 192.273 253.334C192.159 257.549 191.267 261.706 189.642 265.597Z" fill="#242124"/>
<path fill-rule="evenodd" clip-rule="evenodd" d="M199.31 213.069C199.326 213.005 199.355 212.944 199.394 212.891C199.434 212.838 199.483 212.793 199.54 212.76C199.597 212.726 199.66 212.704 199.725 212.694C199.791 212.685 199.857 212.688 199.921 212.705C200.051 212.738 200.162 212.822 200.231 212.937C200.299 213.052 200.319 213.19 200.285 213.32C200.285 213.363 196.089 228.531 220.717 242.308C232.536 248.563 244.884 253.762 257.618 257.844C269.103 261.866 279.28 265.429 286.552 270.547C291.875 274.753 298.411 277.134 305.193 277.336C308.17 277.211 311.09 276.479 313.774 275.184C316.457 273.889 318.848 272.058 320.797 269.805C325.351 264.964 335.79 244.449 344.013 222.689C350.059 206.673 354.896 190.039 355.297 178.504C355.294 178.434 355.305 178.364 355.33 178.299C355.355 178.234 355.393 178.175 355.442 178.125C355.491 178.075 355.55 178.036 355.615 178.01C355.679 177.985 355.749 177.972 355.819 177.975C355.888 177.977 355.957 177.994 356.02 178.024C356.083 178.054 356.139 178.096 356.185 178.149C356.23 178.202 356.265 178.263 356.285 178.33C356.306 178.397 356.313 178.467 356.305 178.536C355.908 190.184 351.042 206.961 344.966 223.042C336.7 244.907 326.163 265.582 321.54 270.496C319.499 272.848 316.997 274.758 314.19 276.107C311.383 277.456 308.33 278.216 305.218 278.34C298.219 278.148 291.469 275.703 285.97 271.37C276.989 265.965 267.35 261.738 257.291 258.794C244.503 254.69 232.102 249.466 220.232 243.182C194.913 229.019 199.295 213.112 199.31 213.065V213.069ZM294.888 221.051C293.98 201.911 295.877 182.742 300.519 164.151C300.548 164.024 300.527 163.89 300.46 163.778C300.393 163.666 300.285 163.585 300.159 163.55C300.033 163.516 299.898 163.532 299.784 163.594C299.669 163.657 299.583 163.761 299.544 163.885C294.919 182.386 292.999 201.458 293.843 220.509C292.933 220.287 291.514 220.356 291.062 222.66C285.719 217.2 277.926 214.39 268.808 211.088C256.195 206.517 241.024 201.017 226.479 186.366C221.23 181.081 209.826 186.519 209.793 186.53C209.733 186.558 209.679 186.598 209.634 186.647C209.589 186.696 209.554 186.753 209.532 186.816C209.509 186.878 209.499 186.945 209.502 187.011C209.505 187.078 209.521 187.143 209.549 187.203C209.577 187.263 209.617 187.317 209.666 187.362C209.715 187.407 209.773 187.442 209.835 187.464C209.898 187.487 209.964 187.497 210.031 187.494C210.097 187.491 210.162 187.475 210.223 187.447C210.252 187.447 221.019 182.3 225.761 187.083C240.467 201.898 255.755 207.434 268.465 212.046C277.871 215.453 285.854 218.347 291.033 224.105C291.741 225.233 292.258 226.47 292.562 227.767C292.573 227.835 292.598 227.9 292.635 227.958C292.672 228.016 292.721 228.066 292.778 228.104C292.835 228.143 292.899 228.169 292.966 228.182C293.034 228.195 293.103 228.194 293.171 228.179C293.238 228.164 293.301 228.136 293.357 228.096C293.413 228.055 293.46 228.004 293.496 227.945C293.531 227.886 293.554 227.82 293.563 227.752C293.572 227.684 293.567 227.615 293.548 227.548C293.227 226.178 292.689 224.868 291.954 223.668C292.151 220.913 293.741 221.506 294.076 221.659C294.749 222.397 295.294 223.242 295.689 224.16C295.704 224.226 295.732 224.289 295.772 224.344C295.813 224.399 295.863 224.446 295.922 224.481C295.98 224.516 296.045 224.539 296.113 224.548C296.18 224.557 296.249 224.553 296.315 224.535C296.381 224.517 296.442 224.486 296.496 224.444C296.549 224.401 296.594 224.349 296.626 224.289C296.659 224.229 296.679 224.163 296.686 224.095C296.692 224.027 296.685 223.959 296.664 223.894C296.242 222.848 295.639 221.886 294.881 221.051H294.888Z" fill="#D4A037"/>
<path fill-rule="evenodd" clip-rule="evenodd" d="M264.603 69.3854C263.44 69.7686 262.417 70.4883 261.663 71.4533C260.909 72.4184 260.458 73.5855 260.368 74.8068C260.278 76.0281 260.552 77.2487 261.156 78.3141C261.76 79.3795 262.666 80.2417 263.761 80.7916C264.855 81.3415 266.088 81.5544 267.303 81.4032C268.518 81.2521 269.661 80.7438 270.588 79.9427C271.514 79.1415 272.181 78.0836 272.506 76.9027C272.831 75.7219 272.797 74.4713 272.411 73.3093C271.894 71.7551 270.782 70.4692 269.318 69.7337C267.854 68.9981 266.159 68.8729 264.603 69.3854Z" fill="#CB6459"/>
<path fill-rule="evenodd" clip-rule="evenodd" d="M255.751 58.229C254.641 58.0555 253.505 58.1569 252.443 58.5244C251.382 58.8918 250.426 59.5141 249.661 60.3366C249.497 60.5345 249.261 60.6591 249.005 60.683C248.749 60.7069 248.494 60.6281 248.296 60.464C248.098 60.2999 247.974 60.0639 247.95 59.8079C247.926 59.5519 248.005 59.2969 248.169 59.099C249.143 58.0289 250.365 57.2147 251.728 56.7278C253.091 56.241 254.552 56.0966 255.984 56.3071C256.234 56.3433 256.461 56.476 256.614 56.6768C256.768 56.8777 256.837 57.1308 256.807 57.382C256.776 57.6332 256.649 57.8624 256.451 58.0207C256.254 58.1791 256.003 58.2538 255.751 58.229Z" fill="#350A3D"/>
<path fill-rule="evenodd" clip-rule="evenodd" d="M254.08 63.5397C254.58 63.3587 255.127 63.3587 255.627 63.5397C255.74 63.4686 255.837 63.3739 255.911 63.2621C255.984 63.1503 256.032 63.024 256.053 62.8918C256.059 62.844 256.076 62.798 256.1 62.7564C256.124 62.7148 256.157 62.6784 256.196 62.6493C256.234 62.6203 256.278 62.5991 256.325 62.587C256.371 62.5749 256.42 62.572 256.468 62.5787C256.516 62.5854 256.562 62.6015 256.603 62.626C256.645 62.6504 256.681 62.6829 256.71 62.7214C256.739 62.76 256.761 62.8038 256.773 62.8506C256.785 62.8973 256.788 62.9459 256.781 62.9937C256.73 63.3402 256.567 63.6602 256.315 63.9037H256.34C256.666 63.7026 256.913 63.3972 257.043 63.0374C257.076 62.9462 257.143 62.8717 257.231 62.8304C257.319 62.7891 257.419 62.7844 257.511 62.8172C257.602 62.85 257.676 62.9177 257.718 63.0054C257.759 63.0931 257.764 63.1937 257.731 63.2849C257.58 63.7024 257.315 64.0694 256.966 64.3441C257.326 64.1946 257.64 63.9552 257.88 63.6489C257.94 63.5731 258.027 63.5242 258.123 63.5129C258.219 63.5017 258.316 63.529 258.392 63.5888C258.467 63.6487 258.516 63.7362 258.528 63.8321C258.539 63.928 258.511 64.0245 258.452 64.1002C258.203 64.4222 257.889 64.6878 257.531 64.8792L257.079 65.1158L257.997 67.722C258.194 68.2932 258.158 68.9192 257.897 69.4643C257.636 70.0094 257.171 70.4296 256.602 70.634C256.031 70.8322 255.404 70.7966 254.859 70.5348C254.313 70.273 253.893 69.8063 253.691 69.2363L252.697 66.4225C252.507 65.8565 252.545 65.2387 252.803 64.7003C253.061 64.162 253.519 63.7456 254.08 63.5397Z" fill="#350A3D"/>
<path fill-rule="evenodd" clip-rule="evenodd" d="M236.23 34.9771C236.21 34.8444 236.243 34.7093 236.322 34.601C236.401 34.4926 236.52 34.4198 236.652 34.3983C236.717 34.3879 236.784 34.3905 236.848 34.406C236.912 34.4214 236.973 34.4494 237.026 34.4883C237.08 34.5272 237.125 34.5762 237.16 34.6326C237.194 34.689 237.217 34.7516 237.227 34.8169C237.227 34.9043 241.821 65.782 275.483 53.8976C275.546 53.8753 275.613 53.8657 275.679 53.8692C275.746 53.8728 275.811 53.8894 275.871 53.9181C275.931 53.9468 275.985 53.9871 276.03 54.0367C276.074 54.0863 276.109 54.1441 276.131 54.207C276.153 54.2698 276.163 54.3364 276.159 54.403C276.156 54.4696 276.139 54.5348 276.11 54.595C276.082 54.6552 276.042 54.7091 275.992 54.7537C275.942 54.7983 275.885 54.8326 275.822 54.8549C241.002 67.147 236.248 35.0681 236.23 34.9771Z" fill="#272727"/>
<path fill-rule="evenodd" clip-rule="evenodd" d="M275.076 56.3428C275.924 39.2532 298.637 53.3326 285.781 66.9497C283.062 66.6475 280.525 65.4354 278.582 63.51C276.638 61.5845 275.403 59.0588 275.076 56.3428Z" fill="#E6AD83"/>
<path fill-rule="evenodd" clip-rule="evenodd" d="M315.726 24.4277C315.701 24.3663 315.688 24.3004 315.688 24.2339C315.687 24.1673 315.7 24.1014 315.726 24.0399C315.751 23.9784 315.788 23.9225 315.835 23.8754C315.882 23.8282 315.938 23.7908 315.999 23.7652C316.061 23.7397 316.127 23.7264 316.193 23.7263C316.26 23.7262 316.326 23.7392 316.387 23.7645C316.449 23.7899 316.505 23.8271 316.552 23.8741C316.599 23.921 316.636 23.9768 316.662 24.0382C316.691 24.1038 326.399 47.3995 341.297 56.7178C346.564 59.8292 352.005 62.6366 357.593 65.1261C369.787 70.8554 381.923 76.5592 385.257 85.3133C385.281 85.3755 385.292 85.4417 385.291 85.5082C385.289 85.5748 385.274 85.6404 385.247 85.7012C385.22 85.7621 385.181 85.817 385.133 85.8629C385.085 85.9087 385.028 85.9446 384.966 85.9685C384.904 85.9924 384.837 86.0038 384.771 86.0021C384.704 86.0005 384.639 85.9856 384.578 85.9586C384.517 85.9316 384.462 85.8928 384.416 85.8446C384.37 85.7963 384.335 85.7395 384.311 85.6773C381.104 77.3054 369.157 71.689 357.149 66.047C351.524 63.542 346.048 60.7152 340.748 57.5805C325.587 48.0874 315.755 24.5114 315.726 24.4277Z" fill="#272727"/>
<path fill-rule="evenodd" clip-rule="evenodd" d="M237.631 21.9783C238.654 20.4648 239.835 19.064 241.154 17.7996C243.834 15.2366 246.748 12.9297 249.857 10.9092C270.088 33.7026 299.838 30.878 318.092 26.146C318.656 27.3327 319.184 28.5266 319.708 29.7278C268.596 48.8303 246.29 32.8982 237.631 21.9783Z" fill="#272727"/>
<path fill-rule="evenodd" clip-rule="evenodd" d="M134.947 118.732H165.315C166.459 118.736 167.555 119.192 168.363 120.001C169.172 120.81 169.628 121.906 169.632 123.049V141.697C169.628 142.841 169.172 143.937 168.363 144.745C167.555 145.554 166.459 146.01 165.315 146.014H155.221L151.247 152.449C151.165 152.58 151.052 152.688 150.917 152.763C150.783 152.838 150.631 152.877 150.477 152.877C150.323 152.877 150.171 152.838 150.036 152.763C149.902 152.688 149.788 152.58 149.707 152.449L145.728 146.014H134.947C133.803 146.01 132.707 145.554 131.899 144.745C131.09 143.937 130.634 142.841 130.63 141.697V123.049C130.634 121.906 131.09 120.81 131.899 120.001C132.707 119.192 133.803 118.736 134.947 118.732Z" fill="#FFEEB7"/>
<path fill-rule="evenodd" clip-rule="evenodd" d="M165.063 73.7644H204.218C205.692 73.7692 207.104 74.3572 208.147 75.4C209.189 76.4428 209.776 77.8556 209.78 79.3299V103.354C209.776 104.828 209.189 106.241 208.147 107.283C207.104 108.326 205.692 108.914 204.218 108.919H191.201L186.076 117.211C185.972 117.38 185.826 117.52 185.652 117.617C185.479 117.714 185.283 117.765 185.084 117.765C184.885 117.765 184.69 117.714 184.516 117.617C184.342 117.52 184.197 117.38 184.092 117.211L178.964 108.919H165.063C163.588 108.915 162.175 108.328 161.133 107.285C160.09 106.242 159.504 104.828 159.501 103.354V79.3299C159.504 77.8553 160.09 76.4419 161.133 75.3989C162.175 74.3559 163.588 73.7683 165.063 73.7644Z" fill="#FFEEB7"/>
<path fill-rule="evenodd" clip-rule="evenodd" d="M98.1826 85.9763H126.829C127.907 85.9802 128.941 86.4108 129.702 87.174C130.464 87.9372 130.893 88.971 130.895 90.0494V107.638C130.892 108.716 130.463 109.748 129.701 110.511C128.939 111.273 127.907 111.703 126.829 111.707H117.307L113.558 117.779C113.481 117.903 113.374 118.005 113.247 118.076C113.119 118.148 112.976 118.185 112.83 118.185C112.684 118.185 112.54 118.148 112.413 118.076C112.286 118.005 112.178 117.903 112.102 117.779L108.353 111.707H98.1826C97.1017 111.708 96.0646 111.28 95.2989 110.517C94.5332 109.754 94.1015 108.719 94.0986 107.638V90.0494C94.1015 88.9682 94.5331 87.9322 95.2987 87.1686C96.0643 86.4051 97.1013 85.9763 98.1826 85.9763Z" fill="#FFEEB7"/>
<path fill-rule="evenodd" clip-rule="evenodd" d="M107.054 0H174.873C177.427 0.00864543 179.874 1.02753 181.679 2.83414C183.485 4.64075 184.502 7.0883 184.508 9.64226V51.3016C184.502 53.8556 183.485 56.3031 181.679 58.1097C179.874 59.9163 177.427 60.9352 174.873 60.9438H152.342L143.461 75.3144C143.279 75.6079 143.026 75.8502 142.724 76.0182C142.423 76.1863 142.084 76.2745 141.739 76.2745C141.394 76.2745 141.055 76.1863 140.753 76.0182C140.452 75.8502 140.198 75.6079 140.017 75.3144L131.139 60.9438H107.05C104.496 60.9352 102.049 59.9163 100.244 58.1097C98.4387 56.3031 97.4218 53.8556 97.415 51.3016V9.64226C97.4218 7.08767 98.4393 4.63957 100.245 2.83286C102.051 1.02615 104.499 0.00768573 107.054 0Z" fill="#FFEEB7"/>
<path d="M137.59 7.28003C134.135 7.28003 130.757 8.30473 127.884 10.2246C125.01 12.1444 122.771 14.8731 121.449 18.0657C120.126 21.2582 119.78 24.7712 120.454 28.1604C121.129 31.5496 122.793 34.6628 125.236 37.1063C127.68 39.5497 130.793 41.2138 134.182 41.8879C137.571 42.5621 141.084 42.2161 144.277 40.8937C147.469 39.5713 150.198 37.3319 152.118 34.4587C154.038 31.5854 155.062 28.2074 155.062 24.7518C155.062 20.118 153.222 15.674 149.945 12.3974C146.668 9.1208 142.224 7.28003 137.59 7.28003ZM138.06 10.7744C138.35 10.7744 138.627 10.8894 138.832 11.0942C139.037 11.299 139.152 11.5768 139.152 11.8664V13.9521C140.266 14.1738 141.286 14.7304 142.075 15.5474C142.864 16.3644 143.385 17.4029 143.567 18.5239C143.626 18.7844 143.626 19.0547 143.566 19.3151C143.507 19.5755 143.39 19.8193 143.224 20.0287C143.058 20.238 142.848 20.4077 142.608 20.5252C142.368 20.6427 142.105 20.7051 141.838 20.7078H141.278C140.857 20.6971 140.452 20.5407 140.134 20.2652C139.815 19.9898 139.602 19.6123 139.531 19.1973C139.188 17.5411 138.286 17.2353 137.86 17.2353C137.569 17.2353 136.215 17.3118 136.215 19.7833C136.215 24.0784 143.764 22.7389 143.764 29.7386C143.876 31.1649 143.425 32.5785 142.506 33.6752C141.587 34.7718 140.274 35.4639 138.85 35.6026V37.4225C138.85 37.7122 138.735 37.9899 138.53 38.1947C138.325 38.3995 138.048 38.5145 137.758 38.5145C137.468 38.5145 137.191 38.3995 136.986 38.1947C136.781 37.9899 136.666 37.7122 136.666 37.4225V35.6026C135.39 35.4837 134.192 34.9366 133.267 34.0504C132.342 33.1641 131.744 31.9908 131.57 30.7214C131.529 30.4688 131.544 30.2103 131.614 29.9642C131.683 29.718 131.806 29.49 131.973 29.2964C132.14 29.1028 132.348 28.9482 132.582 28.8434C132.815 28.7387 133.069 28.6864 133.324 28.6903H133.896C134.298 28.6815 134.691 28.8133 135.007 29.0632C135.323 29.313 135.541 29.6652 135.625 30.0589C136.033 32.3776 137.481 32.2647 137.732 32.2647C138.053 32.2647 139.629 32.2065 139.629 29.7677C139.629 24.9011 132.076 27.0559 132.076 19.7615C131.982 18.3432 132.437 16.943 133.347 15.8512C134.257 14.7595 135.552 14.0599 136.964 13.8975V11.87C136.964 11.726 136.992 11.5833 137.047 11.4502C137.102 11.317 137.182 11.1961 137.284 11.0942C137.386 10.9924 137.507 10.9117 137.64 10.8568C137.773 10.8019 137.916 10.7739 138.06 10.7744ZM159.19 21.6943C159.341 22.7067 159.421 23.7283 159.43 24.7518C159.43 30.5441 157.129 36.0991 153.034 40.1949C148.938 44.2906 143.383 46.5916 137.59 46.5916C136.567 46.5825 135.545 46.5022 134.533 46.3514C137.85 49.3773 142.207 51.0082 146.696 50.9051C151.185 50.8019 155.461 48.9727 158.636 45.7976C161.811 42.6226 163.641 38.346 163.744 33.8569C163.847 29.3679 162.216 25.0118 159.19 21.6943Z" fill="url(#paint4_linear_2803_57935)"/>
<path d="M184.078 80.0791C183.475 80.0773 182.884 80.251 182.378 80.5792C181.871 80.9073 181.472 81.3756 181.227 81.927C180.982 82.4784 180.903 83.0891 181 83.6846C181.096 84.2801 181.364 84.8346 181.77 85.2806H186.389C186.796 84.8344 187.063 84.2795 187.16 83.6837C187.256 83.0878 187.177 82.4769 186.932 81.9253C186.687 81.3738 186.286 80.9055 185.779 80.5777C185.273 80.2498 184.681 80.0766 184.078 80.0791ZM194.481 85.2806L191.427 87.1006C190.583 86.588 189.676 86.1855 188.73 85.9031L188.479 86.6311C188.412 86.8412 188.281 87.0248 188.104 87.1557C187.927 87.2865 187.712 87.3577 187.492 87.359H180.667C180.447 87.3583 180.232 87.2873 180.055 87.1564C179.878 87.0255 179.747 86.8415 179.681 86.6311L179.601 86.3835C178.768 86.8012 178.026 87.3812 177.421 88.0895C176.815 88.7977 176.357 89.6198 176.074 90.5076C175.93 90.461 175.778 90.4461 175.628 90.464C175.479 90.4819 175.335 90.5322 175.206 90.6113C175.078 90.6903 174.968 90.7964 174.885 90.9221C174.801 91.0478 174.746 91.1901 174.723 91.3391C174.7 91.4882 174.71 91.6405 174.751 91.7855C174.793 91.9304 174.866 92.0646 174.965 92.1787C175.063 92.2928 175.186 92.3841 175.323 92.4462C175.46 92.5084 175.61 92.54 175.761 92.5387C175.791 93.8135 176.178 95.0543 176.878 96.1204L177.697 101.031C177.733 101.277 177.856 101.503 178.045 101.666C178.233 101.829 178.474 101.919 178.723 101.919H181.119C181.365 101.92 181.604 101.832 181.792 101.673C181.98 101.513 182.105 101.292 182.145 101.049L182.269 100.321C183.354 100.691 184.493 100.879 185.639 100.878C186.344 100.878 187.048 100.822 187.743 100.71L188.166 101.413C188.258 101.567 188.388 101.695 188.545 101.784C188.701 101.872 188.878 101.919 189.057 101.919H191.361C191.515 101.919 191.667 101.884 191.806 101.818C191.945 101.752 192.068 101.656 192.165 101.537C192.263 101.418 192.333 101.279 192.37 101.13C192.407 100.981 192.411 100.825 192.381 100.674L192.071 99.1198C193.065 98.5086 193.915 97.6889 194.561 96.7174H195.751C195.983 96.7169 196.209 96.639 196.391 96.4959C196.574 96.3528 196.703 96.1527 196.759 95.9275L197.367 93.4887C197.43 93.2347 197.395 92.9662 197.269 92.7369C197.143 92.5075 196.935 92.3341 196.687 92.2512L195.231 91.767C194.923 90.8061 194.428 89.9155 193.775 89.1463C194.247 87.9124 194.486 86.6017 194.481 85.2806ZM192.399 91.5195C192.605 91.5195 192.806 91.5806 192.977 91.695C193.148 91.8094 193.282 91.9719 193.361 92.1622C193.439 92.3524 193.46 92.5617 193.42 92.7636C193.38 92.9656 193.281 93.1511 193.135 93.2967C192.989 93.4423 192.804 93.5414 192.602 93.5816C192.4 93.6217 192.191 93.6011 192 93.5223C191.81 93.4435 191.648 93.3101 191.533 93.1389C191.419 92.9677 191.358 92.7664 191.358 92.5606C191.358 92.2845 191.467 92.0197 191.663 91.8244C191.858 91.6292 192.123 91.5195 192.399 91.5195Z" fill="url(#paint5_linear_2803_57935)"/>
<path d="M117.207 90.999C117.207 91.0946 117.188 91.1893 117.151 91.2776C117.115 91.3659 117.061 91.4462 116.993 91.5138C116.926 91.5814 116.846 91.635 116.757 91.6716C116.669 91.7082 116.574 91.727 116.479 91.727C116.383 91.727 116.288 91.7082 116.2 91.6716C116.112 91.635 116.032 91.5814 115.964 91.5138C115.896 91.4462 115.843 91.3659 115.806 91.2776C115.77 91.1893 115.751 91.0946 115.751 90.999H114.295C114.295 91.1921 114.218 91.3773 114.082 91.5138C113.945 91.6503 113.76 91.727 113.567 91.727C113.374 91.727 113.189 91.6503 113.052 91.5138C112.915 91.3773 112.839 91.1921 112.839 90.999H111.383C111.383 91.1921 111.306 91.3773 111.17 91.5138C111.033 91.6503 110.848 91.727 110.655 91.727C110.462 91.727 110.277 91.6503 110.14 91.5138C110.003 91.3773 109.927 91.1921 109.927 90.999H108.471C108.471 91.1921 108.394 91.3773 108.258 91.5138C108.121 91.6503 107.936 91.727 107.743 91.727C107.55 91.727 107.365 91.6503 107.228 91.5138C107.092 91.3773 107.015 91.1921 107.015 90.999H106.287C106.094 90.999 105.909 91.0757 105.772 91.2122C105.636 91.3488 105.559 91.5339 105.559 91.727V104.103C105.559 104.489 105.712 104.859 105.985 105.132C106.258 105.405 106.629 105.559 107.015 105.559H117.207C117.593 105.559 117.963 105.405 118.236 105.132C118.509 104.859 118.663 104.489 118.663 104.103V91.727C118.663 91.5339 118.586 91.3488 118.449 91.2122C118.313 91.0757 118.128 90.999 117.935 90.999H117.207ZM112.839 102.647H108.471C108.278 102.647 108.093 102.57 107.956 102.434C107.82 102.297 107.743 102.112 107.743 101.919C107.743 101.726 107.82 101.541 107.956 101.404C108.093 101.268 108.278 101.191 108.471 101.191H112.839C113.032 101.191 113.217 101.268 113.354 101.404C113.49 101.541 113.567 101.726 113.567 101.919C113.567 102.112 113.49 102.297 113.354 102.434C113.217 102.57 113.032 102.647 112.839 102.647ZM112.839 99.7349H108.471C108.278 99.7349 108.093 99.6582 107.956 99.5217C107.82 99.3852 107.743 99.2 107.743 99.0069C107.743 98.8139 107.82 98.6287 107.956 98.4922C108.093 98.3556 108.278 98.2789 108.471 98.2789H112.839C113.032 98.2789 113.217 98.3556 113.354 98.4922C113.49 98.6287 113.567 98.8139 113.567 99.0069C113.567 99.2 113.49 99.3852 113.354 99.5217C113.217 99.6582 113.032 99.7349 112.839 99.7349ZM116.115 102.647H115.387C115.29 102.647 115.198 102.609 115.129 102.54C115.061 102.472 115.023 102.379 115.023 102.283V101.555C115.023 101.458 115.061 101.366 115.129 101.298C115.198 101.229 115.29 101.191 115.387 101.191H116.115C116.211 101.191 116.304 101.229 116.372 101.298C116.44 101.366 116.479 101.458 116.479 101.555V102.283C116.479 102.379 116.44 102.472 116.372 102.54C116.304 102.609 116.211 102.647 116.115 102.647ZM116.115 99.7349H115.387C115.29 99.7349 115.198 99.6966 115.129 99.6283C115.061 99.5601 115.023 99.4675 115.023 99.3709V98.6429C115.023 98.5464 115.061 98.4538 115.129 98.3856C115.198 98.3173 115.29 98.2789 115.387 98.2789H116.115C116.211 98.2789 116.304 98.3173 116.372 98.3856C116.44 98.4538 116.479 98.5464 116.479 98.6429V99.3709C116.479 99.4675 116.44 99.5601 116.372 99.6283C116.304 99.6966 116.211 99.7349 116.115 99.7349ZM115.751 96.095H108.471C108.278 96.095 108.093 96.0183 107.956 95.8817C107.82 95.7452 107.743 95.5601 107.743 95.367C107.743 95.1739 107.82 94.9887 107.956 94.8522C108.093 94.7157 108.278 94.639 108.471 94.639H115.751C115.944 94.639 116.129 94.7157 116.265 94.8522C116.402 94.9887 116.479 95.1739 116.479 95.367C116.479 95.5601 116.402 95.7452 116.265 95.8817C116.129 96.0183 115.944 96.095 115.751 96.095Z" fill="url(#paint6_linear_2803_57935)"/>
<path d="M155.608 127.853H154.615V124.599C154.611 124.376 154.52 124.164 154.362 124.006C154.203 123.849 153.99 123.76 153.766 123.759H146.436C146.214 123.761 146.002 123.851 145.845 124.008C145.689 124.165 145.6 124.378 145.598 124.599V137.478C145.6 137.699 145.689 137.912 145.845 138.069C146.002 138.226 146.214 138.316 146.436 138.318H153.77C153.993 138.317 154.207 138.228 154.365 138.07C154.524 137.913 154.614 137.701 154.618 137.478V132.818H155.612C155.778 132.814 155.936 132.744 156.052 132.624C156.168 132.504 156.232 132.344 156.231 132.178V128.49C156.232 128.408 156.216 128.326 156.186 128.249C156.155 128.172 156.109 128.102 156.051 128.043C155.994 127.984 155.925 127.937 155.849 127.904C155.773 127.872 155.691 127.854 155.608 127.853ZM150.101 137.681C149.927 137.681 149.756 137.63 149.612 137.533C149.467 137.436 149.354 137.299 149.287 137.138C149.221 136.977 149.203 136.8 149.237 136.629C149.271 136.458 149.355 136.301 149.478 136.178C149.601 136.054 149.758 135.971 149.929 135.937C150.1 135.903 150.277 135.92 150.438 135.987C150.599 136.053 150.737 136.166 150.833 136.311C150.93 136.456 150.982 136.626 150.982 136.801C150.984 136.918 150.963 137.034 150.92 137.143C150.877 137.252 150.812 137.351 150.73 137.435C150.648 137.519 150.55 137.585 150.442 137.631C150.334 137.676 150.218 137.7 150.101 137.7V137.681ZM153.417 134.959C153.418 135.012 153.407 135.066 153.387 135.115C153.367 135.165 153.337 135.21 153.299 135.248C153.261 135.286 153.216 135.316 153.166 135.336C153.116 135.357 153.063 135.367 153.009 135.366H147.185C147.132 135.366 147.08 135.356 147.031 135.335C146.982 135.315 146.938 135.284 146.901 135.246C146.864 135.208 146.835 135.163 146.816 135.114C146.796 135.064 146.787 135.012 146.789 134.959V126.03C146.787 125.977 146.796 125.924 146.816 125.874C146.835 125.825 146.864 125.779 146.901 125.741C146.938 125.703 146.982 125.672 147.031 125.651C147.08 125.63 147.132 125.619 147.185 125.619H153.009C153.118 125.62 153.221 125.663 153.298 125.74C153.374 125.817 153.417 125.921 153.417 126.03V127.85H150.181C150.099 127.851 150.019 127.869 149.944 127.901C149.869 127.934 149.801 127.981 149.744 128.04C149.687 128.099 149.643 128.168 149.613 128.244C149.583 128.32 149.568 128.401 149.57 128.483V132.178C149.567 132.344 149.629 132.504 149.744 132.624C149.858 132.744 150.015 132.814 150.181 132.818H151.466C151.493 132.816 151.519 132.82 151.545 132.828C151.57 132.837 151.593 132.85 151.613 132.868C151.633 132.885 151.649 132.907 151.661 132.931C151.673 132.955 151.679 132.981 151.681 133.008V133.677C151.681 133.98 151.855 134.114 152.045 134.114C152.155 134.11 152.261 134.068 152.343 133.994L153.435 133.124L153.417 134.959ZM153.17 131.73V131.978C153.171 132.04 153.148 132.1 153.106 132.146C153.064 132.192 153.006 132.22 152.944 132.225H152.813C152.751 132.22 152.693 132.192 152.652 132.146C152.611 132.1 152.589 132.04 152.591 131.978V131.766C152.4 131.739 152.214 131.685 152.037 131.606C151.993 131.585 151.958 131.548 151.939 131.502C151.92 131.456 151.919 131.405 151.936 131.359L152.001 131.177C152.017 131.135 152.046 131.1 152.083 131.075C152.12 131.05 152.164 131.038 152.209 131.038C152.241 131.031 152.274 131.031 152.307 131.038C152.464 131.113 152.633 131.159 152.806 131.177C153.02 131.177 153.17 131.068 153.17 130.915C153.17 130.762 153.122 130.689 152.773 130.551C152.365 130.398 151.95 130.187 151.95 129.67C151.952 129.48 152.019 129.296 152.139 129.148C152.26 129.001 152.427 128.898 152.613 128.858V128.647C152.613 128.618 152.619 128.589 152.631 128.562C152.643 128.535 152.66 128.511 152.682 128.491C152.703 128.471 152.728 128.455 152.756 128.445C152.783 128.435 152.813 128.431 152.842 128.432H152.969C152.999 128.431 153.028 128.435 153.055 128.445C153.083 128.455 153.108 128.471 153.13 128.491C153.151 128.511 153.168 128.535 153.18 128.562C153.192 128.589 153.198 128.618 153.199 128.647V128.854C153.35 128.879 153.499 128.918 153.643 128.971C153.689 128.99 153.726 129.027 153.746 129.073C153.765 129.12 153.766 129.172 153.748 129.218L153.679 129.4C153.663 129.441 153.635 129.476 153.599 129.501C153.562 129.526 153.519 129.539 153.475 129.539C153.439 129.539 153.402 129.53 153.37 129.513C153.239 129.454 153.098 129.423 152.955 129.422C152.725 129.422 152.645 129.532 152.645 129.633C152.645 129.735 152.711 129.823 153.093 129.976C153.632 130.187 153.868 130.474 153.868 130.897C153.865 131.096 153.794 131.288 153.667 131.442C153.54 131.596 153.365 131.703 153.17 131.745V131.73Z" fill="url(#paint7_linear_2803_57935)"/>
<defs>
<linearGradient id="paint0_linear_2803_57935" x1="53.9938" y1="326.639" x2="53.9938" y2="358.027" gradientUnits="userSpaceOnUse">
<stop stop-color="#F1474C"/>
<stop offset="1" stop-color="#C81414"/>
</linearGradient>
<linearGradient id="paint1_linear_2803_57935" x1="312.974" y1="98.1812" x2="312.974" y2="340.592" gradientUnits="userSpaceOnUse">
<stop stop-color="#FFDE01"/>
<stop offset="1" stop-color="#FAA71A"/>
</linearGradient>
<linearGradient id="paint2_linear_2803_57935" x1="277.69" y1="142.869" x2="277.69" y2="277.85" gradientUnits="userSpaceOnUse">
<stop stop-color="#FFDE01"/>
<stop offset="1" stop-color="#FAA71A"/>
</linearGradient>
<linearGradient id="paint3_linear_2803_57935" x1="71.6755" y1="326.639" x2="71.6755" y2="358.027" gradientUnits="userSpaceOnUse">
<stop stop-color="#F1474C"/>
<stop offset="1" stop-color="#C81414"/>
</linearGradient>
<linearGradient id="paint4_linear_2803_57935" x1="141.933" y1="7.28003" x2="141.933" y2="50.9097" gradientUnits="userSpaceOnUse">
<stop stop-color="#F1474C"/>
<stop offset="1" stop-color="#C81414"/>
</linearGradient>
<linearGradient id="paint5_linear_2803_57935" x1="186.054" y1="80.0791" x2="186.054" y2="101.919" gradientUnits="userSpaceOnUse">
<stop stop-color="#F1474C"/>
<stop offset="1" stop-color="#C81414"/>
</linearGradient>
<linearGradient id="paint6_linear_2803_57935" x1="112.111" y1="90.999" x2="112.111" y2="105.559" gradientUnits="userSpaceOnUse">
<stop stop-color="#F1474C"/>
<stop offset="1" stop-color="#C5151B"/>
</linearGradient>
<linearGradient id="paint7_linear_2803_57935" x1="150.915" y1="123.759" x2="150.915" y2="138.318" gradientUnits="userSpaceOnUse">
<stop stop-color="#F1474C"/>
<stop offset="1" stop-color="#C5151B"/>
</linearGradient>
</defs>
</svg>
